<svg width="1216" height="388" viewBox="0 0 1216 388" fill="none" xmlns="http://www.w3.org/2000/svg">
<rect width="1216" height="309" fill="#D7E7FF"/>
<path fill-rule="evenodd" clip-rule="evenodd" d="M1029 230C1029 230.967 1028.95 231.922 1028.85 232.863C1035.58 230.997 1042.67 230 1050 230C1058.85 230 1067.37 231.457 1075.32 234.143C1075.11 232.793 1075 231.409 1075 230C1075 215.088 1087.09 203 1102 203C1116.91 203 1129 215.088 1129 230C1129 242.59 1120.38 253.167 1108.72 256.156C1121.33 270.153 1129 288.681 1129 309C1129 352.63 1093.63 388 1050 388C1006.37 388 971 352.63 971 309C971 288.196 979.042 269.27 992.186 255.161C982.127 251.235 975 241.45 975 230C975 215.088 987.088 203 1002 203C1016.91 203 1029 215.088 1029 230Z" fill="white"/>
</svg>
